<svg xmlns="http://www.w3.org/2000/svg" width="58" height="58.583" viewBox="0 0 58 58.583">
  <g id="phone-1" transform="translate(125.653 126.417)">
    <g id="Group_7" data-name="Group 7" transform="translate(-125.653 -126.417)">
      <path id="Path_13" data-name="Path 13" d="M11.018,1.572l.139,0c.084,0,.168.007.25.012.11.007.22.016.331.029.088.01.176.025.264.038.1.017.208.033.314.056.083.018.164.04.274.068l.036.01c.086.022.171.044.256.07s.157.055.236.083l.049.018.08.029c.063.023.127.046.189.072.079.033.156.072.233.109l.061.029.106.051c.046.022.093.043.139.068.081.044.159.093.237.141l.064.04.124.075c.03.018.062.035.092.056.1.066.193.141.288.215l.035.027.131.1.038.027c.166.137.322.279.464.422L20.7,8.728c.142.144.283.3.413.462l.034.047c.032.044.063.088.1.131l.03.04c.072.094.144.187.209.286.021.031.038.064.057.1l.072.122.041.067c.048.078.1.156.139.238.024.046.046.094.067.141l.05.106.03.062c.037.077.075.155.108.234.026.062.047.125.07.188l.03.083.018.049c.029.079.058.159.083.241s.046.168.068.253l.015.062c.022.086.044.172.063.26.022.1.038.208.054.312s.028.179.039.27c.013.111.021.221.028.331.005.085.01.169.012.253,0,.117,0,.233,0,.349,0,.079-.006.158-.011.237-.008.122-.019.243-.034.361-.009.072-.019.145-.031.217-.02.126-.042.251-.069.376-.013.059-.028.116-.047.193-.032.13-.067.259-.107.386-.01.033-.023.066-.034.1l-.024.069c-.046.133-.094.265-.149.394L22,15.8l-.041.089c-.062.136-.125.271-.2.415l-.056.1c-.093.165-.167.286-.235.389l-.064.088c-.12.173-.221.309-.318.426-.148.178-.263.308-.374.42L17.147,21.31a3.157,3.157,0,0,0,0,4.428L32.524,41.269a3.079,3.079,0,0,0,4.385,0l3.557-3.593c.111-.112.239-.228.416-.378.117-.1.251-.2.421-.322l.086-.063c.1-.07.224-.145.389-.241l.1-.062c.131-.073.266-.137.4-.2l.087-.041.048-.023c.13-.056.261-.1.4-.152l.068-.025.093-.033c.128-.041.256-.076.405-.115.056-.014.112-.029.169-.042.124-.027.249-.05.376-.07.07-.011.14-.022.21-.031.121-.015.24-.026.364-.034.077-.005.154-.008.23-.011s.139,0,.209,0l.138,0c.084,0,.168.007.25.012.11.007.22.016.331.029.088.01.176.025.264.038.1.017.208.033.313.056.082.018.164.04.274.068l.036.009c.086.022.171.044.256.07s.157.055.236.083l.049.018.08.029c.063.023.127.046.19.072.079.033.155.072.233.109l.061.029.106.051c.046.022.093.043.139.068.081.044.159.093.237.141l.064.04.124.075c.03.018.062.035.092.056.1.066.193.141.289.215l.035.027.131.1.038.027c.166.137.322.279.464.422l5.258,5.311c.142.144.283.3.413.462l.034.047c.032.044.063.088.1.131l.029.039c.072.094.144.188.209.287.021.031.038.064.057.1l.072.122.041.067c.048.078.1.156.139.238.024.046.046.094.068.141l.05.106.03.063c.037.077.074.154.107.233.026.062.047.125.07.187l.03.083.018.051c.028.079.058.158.083.24s.046.167.068.251l.015.062c.022.087.044.172.063.261s.038.208.054.312.028.179.039.27c.013.111.021.221.028.331.005.084.01.169.012.253,0,.117,0,.233,0,.348,0,.079-.006.158-.011.237-.008.122-.019.243-.034.361-.009.072-.019.145-.031.217-.02.126-.042.251-.069.376-.013.059-.028.116-.047.193-.032.13-.067.259-.107.386-.01.033-.023.066-.034.1l-.024.069c-.046.133-.094.265-.149.394l-.024.051-.041.089c-.062.136-.125.271-.2.415l-.056.1c-.093.165-.167.286-.235.389l-.064.088c-.12.173-.221.309-.318.425-.148.178-.263.308-.374.42l-.017.017-.017.018a14.761,14.761,0,0,1-10.948,4.239c-8.366,0-17.987-5.1-27.1-14.378C7.28,32.586,2.228,22.792,2.317,14.29a15,15,0,0,1,4.2-10.84l.017-.017.017-.017c.111-.112.239-.228.416-.378.117-.1.251-.2.422-.322l.086-.063c.1-.07.224-.145.39-.241l.1-.062c.131-.073.266-.137.4-.2l.087-.041L8.5,2.086c.13-.056.262-.1.4-.152l.068-.025.093-.033c.128-.041.256-.076.405-.115.056-.014.112-.029.169-.042.124-.027.249-.05.376-.07.07-.011.14-.022.209-.031.121-.015.24-.026.364-.034.077-.005.154-.008.23-.011h.208m0-1.953c-.089,0-.177,0-.266,0s-.2.008-.3.014q-.236.016-.471.045c-.092.012-.184.025-.275.04-.164.026-.326.056-.488.092-.082.018-.164.04-.246.061-.169.043-.336.089-.5.143-.072.023-.142.05-.213.075-.173.062-.345.126-.516.2-.06.026-.119.055-.178.083-.177.082-.353.167-.525.262C6.987.664,6.942.692,6.9.72c-.182.105-.361.214-.536.335-.028.02-.055.042-.084.062-.189.133-.374.272-.554.424h0c-.186.157-.369.319-.543.495-7.291,7.007-7.943,23.236,10,41.222C25.811,54.076,35.824,58.2,43.643,58.2c5.277,0,9.553-1.879,12.349-4.845.174-.176.335-.361.49-.548h0c.15-.18.286-.367.418-.557.021-.029.043-.057.063-.087.119-.176.226-.356.329-.538.027-.048.057-.094.082-.142.094-.173.178-.35.258-.528.028-.061.057-.121.084-.182.073-.171.136-.344.2-.518.025-.073.052-.145.075-.219.053-.167.1-.336.141-.506.021-.084.042-.167.061-.251.035-.163.064-.326.09-.491.015-.094.028-.187.04-.281.019-.158.034-.315.044-.473.006-.1.012-.205.014-.308,0-.152.005-.3,0-.454,0-.11-.008-.22-.015-.33-.009-.145-.02-.289-.037-.433-.014-.117-.032-.234-.05-.351-.021-.137-.043-.273-.072-.408s-.057-.245-.088-.367-.064-.256-.1-.382-.086-.253-.131-.379-.083-.238-.131-.355-.117-.259-.178-.388c-.052-.109-.1-.218-.156-.324-.072-.136-.153-.267-.233-.4-.057-.1-.11-.193-.172-.286-.1-.146-.2-.287-.311-.428-.056-.074-.106-.151-.165-.223-.171-.211-.353-.416-.548-.613l-5.258-5.311c-.195-.2-.4-.38-.606-.553-.072-.059-.147-.109-.22-.166-.14-.108-.28-.217-.425-.315-.092-.062-.188-.115-.282-.172-.131-.081-.262-.163-.4-.236-.105-.057-.213-.105-.32-.157-.128-.062-.255-.125-.385-.18s-.235-.09-.353-.133-.247-.092-.374-.131-.254-.072-.382-.105-.24-.062-.36-.089-.271-.051-.407-.073c-.115-.018-.229-.036-.345-.05-.143-.017-.286-.028-.43-.037-.109-.007-.217-.013-.326-.016l-.185,0c-.089,0-.177,0-.266,0s-.2.008-.3.014q-.236.016-.471.045c-.092.012-.184.025-.276.04-.164.026-.326.056-.489.092-.082.018-.164.04-.246.061-.169.043-.336.089-.5.143-.072.023-.142.05-.213.075-.173.062-.345.126-.516.2-.06.026-.119.055-.178.083-.177.082-.353.167-.525.262-.046.026-.092.055-.137.082-.182.105-.361.214-.536.335-.028.02-.055.042-.084.062-.189.133-.374.272-.554.424h0c-.186.157-.369.319-.543.495l-3.557,3.593a1.159,1.159,0,0,1-1.65,0L18.515,24.356a1.187,1.187,0,0,1,0-1.667L22.072,19.1c.174-.176.335-.361.49-.548h0c.15-.18.286-.367.418-.557.021-.029.043-.057.063-.087.119-.176.226-.356.329-.538.027-.048.057-.094.082-.142.094-.173.178-.35.258-.528.028-.061.057-.121.084-.182.073-.171.136-.344.2-.518.025-.073.052-.145.075-.219.053-.167.1-.336.141-.506.021-.084.042-.167.061-.251.035-.163.064-.326.09-.491.015-.094.028-.187.04-.281.019-.158.034-.315.044-.473.007-.1.012-.205.014-.308,0-.152.005-.3,0-.454,0-.11-.008-.22-.015-.33-.009-.145-.02-.289-.037-.433-.014-.117-.032-.234-.05-.351-.021-.137-.044-.273-.072-.408s-.057-.245-.088-.367-.064-.256-.1-.382-.086-.253-.131-.379-.083-.238-.131-.355-.117-.259-.178-.388c-.052-.109-.1-.218-.156-.324-.072-.136-.153-.267-.233-.4-.057-.1-.11-.193-.172-.286-.1-.146-.2-.287-.311-.428-.056-.074-.106-.151-.165-.223-.171-.211-.353-.416-.548-.613L16.813,2.035c-.195-.2-.4-.38-.606-.553-.072-.059-.147-.109-.22-.166-.14-.108-.28-.217-.425-.315-.092-.062-.188-.115-.282-.172-.131-.081-.262-.163-.4-.236-.105-.057-.213-.105-.32-.157-.128-.062-.255-.125-.385-.18s-.235-.09-.353-.133-.247-.092-.374-.131S13.2-.081,13.07-.115s-.24-.062-.36-.089-.271-.051-.407-.073c-.115-.018-.229-.036-.345-.05-.143-.017-.286-.028-.43-.037-.109-.007-.217-.013-.326-.016l-.184,0Z" transform="translate(-0.383 0.381)" fill="#68b7ff"/>
    </g>
  </g>
</svg>
