<svg xmlns="http://www.w3.org/2000/svg" width="58" height="55" viewBox="0 0 58 55">
  <g id="text-message-4641" transform="translate(126.036 117.603)">
    <g id="Group_6" data-name="Group 6" transform="translate(-126.037 -117.603)">
      <path id="Path_8" data-name="Path 8" d="M51.659,56.064A23.726,23.726,0,0,0,41.23,17.236a23.009,23.009,0,0,0-18.052-8.8A23.638,23.638,0,0,0,6.339,48.177L.188,54.427a.663.663,0,0,0-.14.714.644.644,0,0,0,.6.4H17.52a23.016,23.016,0,0,0,17.3,7.888H57.355a.644.644,0,0,0,.6-.4.663.663,0,0,0-.14-.714ZM7.7,48.646a.662.662,0,0,0,0-.926A22.324,22.324,0,0,1,23.178,9.743a22.249,22.249,0,0,1,0,44.492H2.2ZM34.82,62.123a21.709,21.709,0,0,1-15.531-6.578h3.889A23.4,23.4,0,0,0,46.357,31.989a23.689,23.689,0,0,0-3.821-12.935A22.427,22.427,0,0,1,50.3,55.607a.662.662,0,0,0,0,.926l5.5,5.59Z" transform="translate(0.001 -8.433)" fill="#68b7ff"/>
      <path id="Path_9" data-name="Path 9" d="M74.4,62.9H53.145a.655.655,0,0,1,0-1.31H74.4a.655.655,0,1,1,0,1.31Z" transform="translate(-40.534 -49.16)" fill="#68b7ff"/>
      <path id="Path_10" data-name="Path 10" d="M74.4,90.907H53.145a.655.655,0,0,1,0-1.31H74.4a.655.655,0,1,1,0,1.31Z" transform="translate(-40.534 -70.618)" fill="#68b7ff"/>
      <path id="Path_11" data-name="Path 11" d="M74.4,118.915H53.145a.655.655,0,0,1,0-1.31H74.4a.655.655,0,1,1,0,1.31Z" transform="translate(-40.534 -92.077)" fill="#68b7ff"/>
      <path id="Path_12" data-name="Path 12" d="M63.96,146.923H53.145a.655.655,0,1,1,0-1.31H63.96a.655.655,0,1,1,0,1.31Z" transform="translate(-40.463 -113.536)" fill="#68b7ff"/>
    </g>
  </g>
</svg>
