<svg xmlns="http://www.w3.org/2000/svg" width="58" height="28.855" viewBox="0 0 58 28.855">
  <g id="Group_9" data-name="Group 9" transform="translate(-1295.159 -253.742)">
    <path id="Path_14" data-name="Path 14" d="M176.29,112.6a2.578,2.578,0,0,1-1.563-.63l-11.314-8.27V92.672l11.335-8.285a2,2,0,0,1,2.2-.5c.458.218,1.005.759,1.005,2.1v24.387a2.078,2.078,0,0,1-.976,2.065A1.531,1.531,0,0,1,176.29,112.6Zm-10.97-9.869,10.552,7.713c.06.047.114.085.163.116,0-.052.006-.112.006-.179V85.99c0-.072,0-.134-.007-.188-.036.027-.077.058-.122.094L165.32,93.64Z" transform="translate(1175.21 170)" fill="#68b7ff"/>
    <path id="Path_15" data-name="Path 15" d="M55.366,112.592c-5.056,0-9.184-3.744-9.206-8.364V86.04a2.47,2.47,0,0,1,2.517-2.3H77.794c5.057,0,9.186,3.744,9.207,8.364V110.29a2.47,2.47,0,0,1-2.543,2.3H55.366ZM48.25,86.076v18.148c.017,3.565,3.209,6.459,7.12,6.459h29.09a.444.444,0,0,0,.453-.417V92.111c-.017-3.566-3.209-6.46-7.12-6.46H48.7A.45.45,0,0,0,48.25,86.076Z" transform="translate(1249 169.999)" fill="#68b7ff"/>
  </g>
</svg>
